<svg width="270" height="56" viewBox="0 0 270 56" fill="none" xmlns="http://www.w3.org/2000/svg">
<rect width="270" height="56" rx="28" fill="#FBA536"/>
<path d="M52.808 34.456H43.496L41.896 39H38.088L46.056 16.728H50.28L58.248 39H54.408L52.808 34.456ZM51.784 31.48L48.168 21.144L44.52 31.48H51.784ZM65.3605 23.992C65.9792 23.1387 66.8218 22.4453 67.8885 21.912C68.9765 21.3573 70.1818 21.08 71.5045 21.08C73.0618 21.08 74.4698 21.4533 75.7285 22.2C76.9872 22.9467 77.9792 24.0133 78.7045 25.4C79.4298 26.7653 79.7925 28.3333 79.7925 30.104C79.7925 31.8747 79.4298 33.464 78.7045 34.872C77.9792 36.2587 76.9765 37.3467 75.6965 38.136C74.4378 38.904 73.0405 39.288 71.5045 39.288C70.1392 39.288 68.9232 39.0213 67.8565 38.488C66.8112 37.9547 65.9792 37.272 65.3605 36.44V39H61.7125V15.32H65.3605V23.992ZM76.0805 30.104C76.0805 28.888 75.8245 27.8427 75.3125 26.968C74.8218 26.072 74.1605 25.4 73.3285 24.952C72.5178 24.4827 71.6432 24.248 70.7045 24.248C69.7872 24.248 68.9125 24.4827 68.0805 24.952C67.2698 25.4213 66.6085 26.104 66.0965 27C65.6058 27.896 65.3605 28.952 65.3605 30.168C65.3605 31.384 65.6058 32.4507 66.0965 33.368C66.6085 34.264 67.2698 34.9467 68.0805 35.416C68.9125 35.8853 69.7872 36.12 70.7045 36.12C71.6432 36.12 72.5178 35.8853 73.3285 35.416C74.1605 34.9253 74.8218 34.2213 75.3125 33.304C75.8245 32.3867 76.0805 31.32 76.0805 30.104ZM91.048 39.288C89.384 39.288 87.88 38.9147 86.536 38.168C85.192 37.4 84.136 36.3333 83.368 34.968C82.6 33.5813 82.216 31.9813 82.216 30.168C82.216 28.376 82.6107 26.7867 83.4 25.4C84.1893 24.0133 85.2667 22.9467 86.632 22.2C87.9973 21.4533 89.5227 21.08 91.208 21.08C92.8933 21.08 94.4187 21.4533 95.784 22.2C97.1493 22.9467 98.2267 24.0133 99.016 25.4C99.8053 26.7867 100.2 28.376 100.2 30.168C100.2 31.96 99.7947 33.5493 98.984 34.936C98.1733 36.3227 97.064 37.4 95.656 38.168C94.2693 38.9147 92.7333 39.288 91.048 39.288ZM91.048 36.12C91.9867 36.12 92.8613 35.896 93.672 35.448C94.504 35 95.176 34.328 95.688 33.432C96.2 32.536 96.456 31.448 96.456 30.168C96.456 28.888 96.2107 27.8107 95.72 26.936C95.2293 26.04 94.5787 25.368 93.768 24.92C92.9573 24.472 92.0827 24.248 91.144 24.248C90.2053 24.248 89.3307 24.472 88.52 24.92C87.7307 25.368 87.1013 26.04 86.632 26.936C86.1627 27.8107 85.928 28.888 85.928 30.168C85.928 32.0667 86.408 33.5387 87.368 34.584C88.3493 35.608 89.576 36.12 91.048 36.12ZM119.774 21.368V39H116.126V36.92C115.55 37.6453 114.793 38.2213 113.854 38.648C112.937 39.0533 111.956 39.256 110.91 39.256C109.524 39.256 108.276 38.968 107.166 38.392C106.078 37.816 105.214 36.9627 104.574 35.832C103.956 34.7013 103.646 33.336 103.646 31.736V21.368H107.262V31.192C107.262 32.7707 107.657 33.9867 108.446 34.84C109.236 35.672 110.313 36.088 111.678 36.088C113.044 36.088 114.121 35.672 114.91 34.84C115.721 33.9867 116.126 32.7707 116.126 31.192V21.368H119.774ZM128.844 24.344V34.104C128.844 34.7653 128.993 35.2453 129.292 35.544C129.612 35.8213 130.145 35.96 130.892 35.96H133.132V39H130.252C128.609 39 127.35 38.616 126.476 37.848C125.601 37.08 125.164 35.832 125.164 34.104V24.344H123.084V21.368H125.164V16.984H128.844V21.368H133.132V24.344H128.844ZM160.774 21.368V39H157.126V36.92C156.55 37.6453 155.793 38.2213 154.854 38.648C153.937 39.0533 152.956 39.256 151.91 39.256C150.524 39.256 149.276 38.968 148.166 38.392C147.078 37.816 146.214 36.9627 145.574 35.832C144.956 34.7013 144.646 33.336 144.646 31.736V21.368H148.262V31.192C148.262 32.7707 148.657 33.9867 149.446 34.84C150.236 35.672 151.313 36.088 152.678 36.088C154.044 36.088 155.121 35.672 155.91 34.84C156.721 33.9867 157.126 32.7707 157.126 31.192V21.368H160.774ZM171.988 39.288C170.601 39.288 169.353 39.0427 168.244 38.552C167.156 38.04 166.292 37.3573 165.652 36.504C165.012 35.6293 164.67 34.6587 164.628 33.592H168.404C168.468 34.3387 168.82 34.968 169.46 35.48C170.121 35.9707 170.942 36.216 171.924 36.216C172.948 36.216 173.737 36.024 174.292 35.64C174.868 35.2347 175.156 34.7227 175.156 34.104C175.156 33.4427 174.836 32.952 174.196 32.632C173.577 32.312 172.585 31.96 171.22 31.576C169.897 31.2133 168.82 30.8613 167.988 30.52C167.156 30.1787 166.43 29.656 165.812 28.952C165.214 28.248 164.916 27.32 164.916 26.168C164.916 25.2293 165.193 24.376 165.748 23.608C166.302 22.8187 167.092 22.2 168.116 21.752C169.161 21.304 170.356 21.08 171.7 21.08C173.705 21.08 175.316 21.592 176.532 22.616C177.769 23.6187 178.43 24.9947 178.516 26.744H174.868C174.804 25.9547 174.484 25.3253 173.908 24.856C173.332 24.3867 172.553 24.152 171.572 24.152C170.612 24.152 169.876 24.3333 169.364 24.696C168.852 25.0587 168.596 25.5387 168.596 26.136C168.596 26.6053 168.766 27 169.108 27.32C169.449 27.64 169.865 27.896 170.356 28.088C170.846 28.2587 171.572 28.4827 172.532 28.76C173.812 29.1013 174.857 29.4533 175.668 29.816C176.5 30.1573 177.214 30.6693 177.812 31.352C178.409 32.0347 178.718 32.9413 178.74 34.072C178.74 35.0747 178.462 35.9707 177.908 36.76C177.353 37.5493 176.564 38.168 175.54 38.616C174.537 39.064 173.353 39.288 171.988 39.288Z" fill="#022345"/>
<path d="M247.061 29.0607C247.646 28.4749 247.646 27.5251 247.061 26.9393L237.515 17.3934C236.929 16.8076 235.979 16.8076 235.393 17.3934C234.808 17.9792 234.808 18.9289 235.393 19.5147L243.879 28L235.393 36.4853C234.808 37.0711 234.808 38.0208 235.393 38.6066C235.979 39.1924 236.929 39.1924 237.515 38.6066L247.061 29.0607ZM202 29.5H246V26.5H202V29.5Z" fill="#022345"/>
</svg>
