<svg width="30" height="30" viewBox="0 0 30 30" fill="none" xmlns="http://www.w3.org/2000/svg">
<path d="M14.368 20.9966L8.77483 15.4035C8.63109 15.2606 8.51704 15.0906 8.4392 14.9034C8.36136 14.7163 8.32125 14.5155 8.32125 14.3128C8.32125 14.1101 8.36136 13.9094 8.4392 13.7222C8.51704 13.5351 8.63109 13.3651 8.77483 13.2222L13.6782 8.31886L5.5681 0.208824C5.50951 0.143138 5.43768 0.0905805 5.35736 0.054592C5.27703 0.0186034 5.19002 0 5.102 0C5.01399 0 4.92698 0.0186034 4.84665 0.054592C4.76633 0.0905805 4.6945 0.143138 4.63591 0.208824C1.56624 3.55335 -0.0931593 7.95418 0.00404127 12.4928C0.101242 17.0315 1.94755 21.3572 5.15759 24.5673C8.36763 27.7773 12.6934 29.6236 17.232 29.7208C21.7707 29.818 26.1715 28.1586 29.516 25.0889C29.5831 25.0312 29.6368 24.9596 29.6737 24.8792C29.7106 24.7988 29.7297 24.7113 29.7297 24.6228C29.7297 24.5344 29.7106 24.4469 29.6737 24.3665C29.6368 24.286 29.5831 24.2145 29.516 24.1567L21.4153 16.0467L16.512 20.95C16.2287 21.2311 15.8483 21.3927 15.4493 21.4014C15.0503 21.4101 14.6632 21.2652 14.368 20.9966Z" fill="#06326F"/>
</svg>
