<svg width="34" height="34" viewBox="0 0 34 34" fill="none" xmlns="http://www.w3.org/2000/svg">
<path d="M26.0657 5.92871C25.6804 5.92871 25.3037 6.04297 24.9833 6.25705C24.6629 6.47112 24.4132 6.77541 24.2658 7.13141C24.1183 7.48741 24.0797 7.87915 24.1549 8.25708C24.23 8.63501 24.4156 8.98215 24.6881 9.25463C24.9606 9.5271 25.3077 9.71264 25.6856 9.78781C26.0635 9.86299 26.4553 9.82441 26.8113 9.67695C27.1673 9.52949 27.4715 9.27978 27.6856 8.95939C27.8997 8.639 28.014 8.26231 28.014 7.87698C28.014 7.62113 27.9636 7.36779 27.8657 7.13141C27.7678 6.89504 27.6243 6.68025 27.4434 6.49934C27.2624 6.31842 27.0477 6.17492 26.8113 6.07701C26.5749 5.9791 26.3216 5.92871 26.0657 5.92871Z" fill="#06326E"/>
<path d="M17.415 8.47364C15.7958 8.47179 14.2125 8.95025 12.8653 9.84847C11.5182 10.7467 10.4677 12.0243 9.84677 13.5197C9.22586 15.015 9.06245 16.661 9.3772 18.2493C9.69195 19.8375 10.4707 21.2968 11.615 22.4423C12.7593 23.5879 14.2176 24.3683 15.8055 24.6849C17.3934 25.0015 19.0396 24.8399 20.5356 24.2207C22.0317 23.6015 23.3105 22.5525 24.2103 21.2064C25.11 19.8602 25.5903 18.2774 25.5903 16.6583C25.5878 14.4899 24.726 12.411 23.1937 10.8769C21.6613 9.34275 19.5833 8.47857 17.415 8.47364ZM17.415 21.8971C16.3788 21.8971 15.3659 21.5899 14.5044 21.0142C13.6429 20.4386 12.9714 19.6204 12.5749 18.6631C12.1784 17.7058 12.0746 16.6524 12.2768 15.6362C12.4789 14.6199 12.9779 13.6865 13.7105 12.9538C14.4432 12.2211 15.3767 11.7222 16.393 11.52C17.4092 11.3179 18.4626 11.4216 19.4199 11.8181C20.3771 12.2147 21.1953 12.8861 21.771 13.7477C22.3466 14.6092 22.6539 15.6221 22.6539 16.6583C22.6392 18.0388 22.081 19.358 21.1004 20.3299C20.1198 21.3018 18.7957 21.8482 17.415 21.8505V21.8971Z" fill="#06326E"/>
<path d="M23.903 33.2139H10.6472C8.0026 33.2114 5.46701 32.1597 3.59698 30.2897C1.72695 28.4197 0.67532 25.8841 0.672852 23.2395V9.97441C0.67532 7.32979 1.72695 4.79419 3.59698 2.92416C5.46701 1.05412 8.0026 0.00246815 10.6472 0H23.903C26.5476 0.00246815 29.0832 1.05412 30.9532 2.92416C32.8232 4.79419 33.8749 7.32979 33.8774 9.97441V23.2395C33.8749 25.8841 32.8232 28.4197 30.9532 30.2897C29.0832 32.1597 26.5476 33.2114 23.903 33.2139ZM10.6472 3.12282C8.83083 3.12529 7.08957 3.84794 5.80518 5.13233C4.52079 6.41672 3.79813 8.15802 3.79566 9.97441V23.2395C3.79813 25.0558 4.52079 26.7972 5.80518 28.0815C7.08957 29.3659 8.83083 30.0886 10.6472 30.091H23.903C25.7194 30.0886 27.4606 29.3659 28.745 28.0815C30.0294 26.7972 30.7521 25.0558 30.7545 23.2395V9.97441C30.7521 8.15802 30.0294 6.41672 28.745 5.13233C27.4606 3.84794 25.7194 3.12529 23.903 3.12282H10.6472Z" fill="#06326E"/>
</svg>
