<svg width="294" height="51" viewBox="0 0 294 51" fill="none" xmlns="http://www.w3.org/2000/svg">
<path d="M0 25.5C0 11.4167 11.4167 0 25.5 0H268.5C282.583 0 294 11.4167 294 25.5C294 39.5833 282.583 51 268.5 51H25.5C11.4167 51 0 39.5833 0 25.5Z" fill="#FBA536"/>
<path d="M46.852 32.3356H53.292V35.4436H42.932V15.8996H46.852V32.3356ZM70.2036 27.3516C70.2036 27.9116 70.1662 28.4156 70.0916 28.8636H58.7516C58.8449 29.9836 59.2369 30.8609 59.9276 31.4956C60.6182 32.1303 61.4676 32.4476 62.4756 32.4476C63.9316 32.4476 64.9676 31.8223 65.5836 30.5716H69.8116C69.3636 32.0649 68.5049 33.2969 67.2356 34.2676C65.9662 35.2196 64.4076 35.6956 62.5596 35.6956C61.0662 35.6956 59.7222 35.3689 58.5276 34.7156C57.3516 34.0436 56.4276 33.1009 55.7556 31.8876C55.1022 30.6743 54.7756 29.2743 54.7756 27.6876C54.7756 26.0823 55.1022 24.6729 55.7556 23.4596C56.4089 22.2463 57.3236 21.3129 58.4996 20.6596C59.6756 20.0063 61.0289 19.6796 62.5596 19.6796C64.0342 19.6796 65.3502 19.9969 66.5076 20.6316C67.6836 21.2663 68.5889 22.1716 69.2236 23.3476C69.8769 24.5049 70.2036 25.8396 70.2036 27.3516ZM66.1436 26.2316C66.1249 25.2236 65.7609 24.4209 65.0516 23.8236C64.3422 23.2076 63.4742 22.8996 62.4476 22.8996C61.4769 22.8996 60.6556 23.1983 59.9836 23.7956C59.3302 24.3743 58.9289 25.1863 58.7796 26.2316H66.1436ZM72.0568 27.6316C72.0568 26.0636 72.3648 24.6729 72.9808 23.4596C73.6155 22.2463 74.4648 21.3129 75.5288 20.6596C76.6115 20.0063 77.8155 19.6796 79.1408 19.6796C80.2981 19.6796 81.3061 19.9129 82.1648 20.3796C83.0421 20.8463 83.7421 21.4343 84.2648 22.1436V19.9316H88.2128V35.4436H84.2648V33.1756C83.7608 33.9036 83.0608 34.5103 82.1648 34.9956C81.2875 35.4623 80.2701 35.6956 79.1128 35.6956C77.8061 35.6956 76.6115 35.3596 75.5288 34.6876C74.4648 34.0156 73.6155 33.0729 72.9808 31.8596C72.3648 30.6276 72.0568 29.2183 72.0568 27.6316ZM84.2648 27.6876C84.2648 26.7356 84.0781 25.9236 83.7048 25.2516C83.3315 24.5609 82.8275 24.0383 82.1928 23.6836C81.5581 23.3103 80.8768 23.1236 80.1488 23.1236C79.4208 23.1236 78.7488 23.3009 78.1328 23.6556C77.5168 24.0103 77.0128 24.5329 76.6208 25.2236C76.2475 25.8956 76.0608 26.6983 76.0608 27.6316C76.0608 28.5649 76.2475 29.3863 76.6208 30.0956C77.0128 30.7863 77.5168 31.3183 78.1328 31.6916C78.7675 32.0649 79.4395 32.2516 80.1488 32.2516C80.8768 32.2516 81.5581 32.0743 82.1928 31.7196C82.8275 31.3463 83.3315 30.8236 83.7048 30.1516C84.0781 29.4609 84.2648 28.6396 84.2648 27.6876ZM95.9614 22.3396C96.4654 21.5183 97.1187 20.8743 97.9214 20.4076C98.7427 19.9409 99.676 19.7076 100.721 19.7076V23.8236H99.6854C98.4534 23.8236 97.52 24.1129 96.8854 24.6916C96.2694 25.2703 95.9614 26.2783 95.9614 27.7156V35.4436H92.0414V19.9316H95.9614V22.3396ZM111.958 19.7076C113.806 19.7076 115.299 20.2956 116.438 21.4716C117.576 22.6289 118.146 24.2529 118.146 26.3436V35.4436H114.226V26.8756C114.226 25.6436 113.918 24.7009 113.302 24.0476C112.686 23.3756 111.846 23.0396 110.782 23.0396C109.699 23.0396 108.84 23.3756 108.206 24.0476C107.59 24.7009 107.282 25.6436 107.282 26.8756V35.4436H103.362V19.9316H107.282V21.8636C107.804 21.1916 108.467 20.6689 109.27 20.2956C110.091 19.9036 110.987 19.7076 111.958 19.7076ZM149.853 15.8996V35.4436H145.933V22.7316L140.697 35.4436H137.729L132.465 22.7316V35.4436H128.545V15.8996H132.997L139.213 30.4316L145.429 15.8996H149.853ZM160.617 35.6956C159.124 35.6956 157.78 35.3689 156.585 34.7156C155.39 34.0436 154.448 33.1009 153.757 31.8876C153.085 30.6743 152.749 29.2743 152.749 27.6876C152.749 26.1009 153.094 24.7009 153.785 23.4876C154.494 22.2743 155.456 21.3409 156.669 20.6876C157.882 20.0156 159.236 19.6796 160.729 19.6796C162.222 19.6796 163.576 20.0156 164.789 20.6876C166.002 21.3409 166.954 22.2743 167.645 23.4876C168.354 24.7009 168.709 26.1009 168.709 27.6876C168.709 29.2743 168.345 30.6743 167.617 31.8876C166.908 33.1009 165.937 34.0436 164.705 34.7156C163.492 35.3689 162.129 35.6956 160.617 35.6956ZM160.617 32.2796C161.326 32.2796 161.989 32.1116 162.605 31.7756C163.24 31.4209 163.744 30.8983 164.117 30.2076C164.49 29.5169 164.677 28.6769 164.677 27.6876C164.677 26.2129 164.285 25.0836 163.501 24.2996C162.736 23.4969 161.793 23.0956 160.673 23.0956C159.553 23.0956 158.61 23.4969 157.845 24.2996C157.098 25.0836 156.725 26.2129 156.725 27.6876C156.725 29.1623 157.089 30.3009 157.817 31.1036C158.564 31.8876 159.497 32.2796 160.617 32.2796ZM175.504 22.3396C176.008 21.5183 176.662 20.8743 177.464 20.4076C178.286 19.9409 179.219 19.7076 180.264 19.7076V23.8236H179.228C177.996 23.8236 177.063 24.1129 176.428 24.6916C175.812 25.2703 175.504 26.2783 175.504 27.7156V35.4436H171.584V19.9316H175.504V22.3396ZM197.325 27.3516C197.325 27.9116 197.287 28.4156 197.213 28.8636H185.873C185.966 29.9836 186.358 30.8609 187.049 31.4956C187.739 32.1303 188.589 32.4476 189.597 32.4476C191.053 32.4476 192.089 31.8223 192.705 30.5716H196.933C196.485 32.0649 195.626 33.2969 194.357 34.2676C193.087 35.2196 191.529 35.6956 189.681 35.6956C188.187 35.6956 186.843 35.3689 185.649 34.7156C184.473 34.0436 183.549 33.1009 182.877 31.8876C182.223 30.6743 181.897 29.2743 181.897 27.6876C181.897 26.0823 182.223 24.6729 182.877 23.4596C183.53 22.2463 184.445 21.3129 185.621 20.6596C186.797 20.0063 188.15 19.6796 189.681 19.6796C191.155 19.6796 192.471 19.9969 193.629 20.6316C194.805 21.2663 195.71 22.1716 196.345 23.3476C196.998 24.5049 197.325 25.8396 197.325 27.3516ZM193.265 26.2316C193.246 25.2236 192.882 24.4209 192.173 23.8236C191.463 23.2076 190.595 22.8996 189.569 22.8996C188.598 22.8996 187.777 23.1983 187.105 23.7956C186.451 24.3743 186.05 25.1863 185.901 26.2316H193.265Z" fill="#022345"/>
<path d="M271.061 26.0607C271.646 25.4749 271.646 24.5251 271.061 23.9393L261.515 14.3934C260.929 13.8076 259.979 13.8076 259.393 14.3934C258.808 14.9792 258.808 15.9289 259.393 16.5147L267.879 25L259.393 33.4853C258.808 34.0711 258.808 35.0208 259.393 35.6066C259.979 36.1924 260.929 36.1924 261.515 35.6066L271.061 26.0607ZM226 26.5H270V23.5H226V26.5Z" fill="#022345"/>
</svg>
