<svg width="100" height="54" viewBox="0 0 100 54" fill="none" xmlns="http://www.w3.org/2000/svg">
<path d="M57.4055 0.0823361C57.7247 0.0834043 58.0408 0.147343 58.3351 0.270641C58.6296 0.39394 58.897 0.574309 59.1216 0.801068C59.3464 1.02783 59.524 1.29686 59.6446 1.59244C59.7651 1.88817 59.8262 2.20466 59.8242 2.52389L59.6716 51.7105C59.671 51.897 59.6336 52.0815 59.5617 52.2536C59.4897 52.4256 59.3845 52.5818 59.2521 52.7132C59.1198 52.8446 58.9628 52.9485 58.7902 53.0192C58.6176 53.09 58.4328 53.1258 58.2463 53.1251L44.2547 53.0808C43.8781 53.0791 43.5173 52.9282 43.252 52.661C42.9865 52.3938 42.8378 52.0322 42.8386 51.6556L42.9591 14.4463C42.9645 12.5546 43.3425 10.6825 44.0714 8.93678C44.8004 7.19122 45.866 5.6062 47.2074 4.27235C48.5489 2.9385 50.1399 1.88207 51.8897 1.16303C53.6396 0.444144 55.5138 0.0768426 57.4055 0.0823361Z" fill="#022345"/>
<path d="M36.1166 14.393C36.4133 14.3936 36.707 14.4527 36.9808 14.567C37.2545 14.6813 37.5031 14.8485 37.7122 15.0589C37.9214 15.2695 38.0868 15.5192 38.1993 15.7937C38.3117 16.0684 38.3688 16.3624 38.3674 16.6591L38.253 51.9227C38.2513 52.2993 38.1004 52.6601 37.8332 52.9254C37.566 53.191 37.2043 53.3396 36.8277 53.3388L22.8346 53.293C22.6481 53.2924 22.4635 53.2551 22.2915 53.1832C22.1195 53.1112 21.9632 53.006 21.8319 52.8736C21.7005 52.7413 21.5965 52.5842 21.5259 52.4116C21.4551 52.2391 21.4192 52.0543 21.42 51.8678L21.4932 28.934C21.4986 27.019 21.8811 25.1239 22.6189 23.3567C23.3568 21.5896 24.4355 19.9851 25.7934 18.6349C27.1512 17.2846 28.7619 16.215 30.5331 15.4873C32.3044 14.7594 34.2017 14.3875 36.1166 14.393Z" fill="#022345"/>
<path d="M14.5746 29.8342C15.1915 29.8362 15.7824 30.0831 16.2173 30.5206C16.6522 30.9582 16.8957 31.5504 16.894 32.1674L16.833 50.5706C16.8319 50.9338 16.7594 51.2933 16.6195 51.6286C16.4794 51.9637 16.2748 52.2681 16.0172 52.5241C15.7596 52.7802 15.454 52.983 15.118 53.121C14.7819 53.2589 14.422 53.3292 14.0588 53.328L2.75745 53.2914C2.39411 53.2902 2.03459 53.2174 1.69934 53.0773C1.36423 52.9372 1.05996 52.7324 0.803898 52.4746C0.54784 52.2168 0.345037 51.9112 0.207089 51.5751C0.0691413 51.239 -0.00120516 50.879 1.56203e-05 50.5157L0.019854 44.2943C0.0261105 42.3891 0.40745 40.5039 1.1422 38.7462C1.87711 36.9884 2.95094 35.3925 4.30234 34.0498C5.65389 32.7071 7.25677 31.6437 9.01927 30.9204C10.7818 30.1971 12.6694 29.8279 14.5746 29.8342Z" fill="#022345"/>
<path d="M87.4351 37.5648C90.7782 37.5757 93.98 38.9141 96.3364 41.2856C98.6926 43.6571 100.01 46.8675 99.9999 50.2106C99.9989 50.49 99.9428 50.7665 99.835 51.0242C99.7269 51.2818 99.5693 51.5157 99.3709 51.7124C99.1724 51.9093 98.9372 52.0649 98.6786 52.1707C98.4199 52.2763 98.143 52.33 97.8636 52.3286L64.5974 52.2203C64.2681 52.2186 63.9528 52.0864 63.7209 51.8528C63.4889 51.619 63.3591 51.3028 63.3598 50.9735L63.3995 38.7291C63.4001 38.566 63.4328 38.4046 63.4958 38.2541C63.5588 38.1037 63.6508 37.9671 63.7665 37.8522C63.8823 37.7373 64.0197 37.6463 64.1706 37.5844C64.3215 37.5226 64.4831 37.491 64.6462 37.4916L87.4351 37.5648Z" fill="#022345"/>
<path d="M77.3958 18.7832C79.0713 18.7885 80.7292 19.124 82.2752 19.7702C83.821 20.4163 85.2244 21.3607 86.4054 22.5493C87.5863 23.7379 88.5216 25.1474 89.1578 26.6974C89.794 28.2474 90.1185 29.9075 90.1132 31.5831C90.1124 31.8425 90.0604 32.099 89.9601 32.3383C89.86 32.5775 89.7135 32.7945 89.5292 32.977C89.3449 33.1595 89.1263 33.3037 88.8862 33.4016C88.646 33.4994 88.3889 33.5488 88.1294 33.547L64.4616 33.4707C64.1323 33.4695 63.8169 33.3378 63.5846 33.1043C63.3524 32.8708 63.2221 32.5548 63.2225 32.2255L63.2622 19.9796C63.2634 19.65 63.3954 19.3344 63.6292 19.102C63.863 18.8697 64.1793 18.7397 64.5089 18.7405L77.3958 18.7832Z" fill="#022345"/>
<path d="M66.7948 0.00461135C68.4618 0.00979965 70.1115 0.343377 71.6496 0.986116C73.1877 1.62885 74.5842 2.5684 75.7592 3.75087C76.9342 4.93335 77.8647 6.33571 78.4977 7.87786C79.1306 9.42016 79.4535 11.0719 79.4482 12.7388C79.4458 13.2784 79.2295 13.7951 78.8468 14.1755C78.4641 14.556 77.946 14.7691 77.4065 14.7684L65.6321 14.7302C65.3142 14.7292 64.9997 14.6657 64.7064 14.5431C64.4133 14.4205 64.147 14.2415 63.923 14.0159C63.699 13.7905 63.5215 13.5232 63.4008 13.2291C63.2801 12.9351 63.2184 12.6203 63.2195 12.3024L63.2515 2.41259C63.2523 2.09443 63.3159 1.77962 63.4386 1.48602C63.5612 1.19258 63.7406 0.925993 63.9665 0.70198C64.1923 0.477815 64.46 0.300497 64.7545 0.180098C65.049 0.0595465 65.3643 -0.00164495 65.6824 3.36204e-05L66.7948 0.00461135Z" fill="#022345"/>
</svg>
