<svg width="202" height="59" viewBox="0 0 202 59" fill="none" xmlns="http://www.w3.org/2000/svg">
<path d="M64.44 38.168C63.272 38.168 62.216 37.968 61.272 37.568C60.344 37.168 59.608 36.592 59.064 35.84C58.52 35.088 58.24 34.2 58.224 33.176H61.824C61.872 33.864 62.112 34.408 62.544 34.808C62.992 35.208 63.6 35.408 64.368 35.408C65.152 35.408 65.768 35.224 66.216 34.856C66.664 34.472 66.888 33.976 66.888 33.368C66.888 32.872 66.736 32.464 66.432 32.144C66.128 31.824 65.744 31.576 65.28 31.4C64.832 31.208 64.208 31 63.408 30.776C62.32 30.456 61.432 30.144 60.744 29.84C60.072 29.52 59.488 29.048 58.992 28.424C58.512 27.784 58.272 26.936 58.272 25.88C58.272 24.888 58.52 24.024 59.016 23.288C59.512 22.552 60.208 21.992 61.104 21.608C62 21.208 63.024 21.008 64.176 21.008C65.904 21.008 67.304 21.432 68.376 22.28C69.464 23.112 70.064 24.28 70.176 25.784H66.48C66.448 25.208 66.2 24.736 65.736 24.368C65.288 23.984 64.688 23.792 63.936 23.792C63.28 23.792 62.752 23.96 62.352 24.296C61.968 24.632 61.776 25.12 61.776 25.76C61.776 26.208 61.92 26.584 62.208 26.888C62.512 27.176 62.88 27.416 63.312 27.608C63.76 27.784 64.384 27.992 65.184 28.232C66.272 28.552 67.16 28.872 67.848 29.192C68.536 29.512 69.128 29.992 69.624 30.632C70.12 31.272 70.368 32.112 70.368 33.152C70.368 34.048 70.136 34.88 69.672 35.648C69.208 36.416 68.528 37.032 67.632 37.496C66.736 37.944 65.672 38.168 64.44 38.168ZM76.641 21.248V38H73.281V21.248H76.641ZM91.6247 26.288C91.2407 25.584 90.7127 25.048 90.0407 24.68C89.3687 24.312 88.5847 24.128 87.6887 24.128C86.6967 24.128 85.8167 24.352 85.0487 24.8C84.2807 25.248 83.6807 25.888 83.2487 26.72C82.8167 27.552 82.6007 28.512 82.6007 29.6C82.6007 30.72 82.8167 31.696 83.2487 32.528C83.6967 33.36 84.3127 34 85.0967 34.448C85.8807 34.896 86.7927 35.12 87.8327 35.12C89.1127 35.12 90.1607 34.784 90.9767 34.112C91.7927 33.424 92.3287 32.472 92.5847 31.256H86.8247V28.688H95.8967V31.616C95.6727 32.784 95.1927 33.864 94.4567 34.856C93.7207 35.848 92.7687 36.648 91.6007 37.256C90.4487 37.848 89.1527 38.144 87.7127 38.144C86.0967 38.144 84.6327 37.784 83.3207 37.064C82.0247 36.328 81.0007 35.312 80.2487 34.016C79.5127 32.72 79.1447 31.248 79.1447 29.6C79.1447 27.952 79.5127 26.48 80.2487 25.184C81.0007 23.872 82.0247 22.856 83.3207 22.136C84.6327 21.4 86.0887 21.032 87.6887 21.032C89.5767 21.032 91.2167 21.496 92.6087 22.424C94.0007 23.336 94.9607 24.624 95.4887 26.288H91.6247ZM112.711 38H109.351L101.743 26.504V38H98.3826V21.224H101.743L109.351 32.744V21.224H112.711V38ZM125.11 21.248V38H121.75V21.248H125.11ZM142.757 38H139.397L131.789 26.504V38H128.429V21.224H131.789L139.397 32.744V21.224H142.757V38Z" fill="#033CA4"/>
<rect x="1.5" y="1.5" width="199" height="56" rx="28" stroke="#074497" stroke-width="3"/>
</svg>
