<svg width="206" height="39" viewBox="0 0 206 39" fill="none" xmlns="http://www.w3.org/2000/svg">
<rect width="206" height="39" rx="19.5" fill="#C4C4C4"/>
<path d="M52.2 27.14C51.2267 27.14 50.3467 26.9733 49.56 26.64C48.7867 26.3067 48.1733 25.8267 47.72 25.2C47.2667 24.5733 47.0333 23.8333 47.02 22.98H50.02C50.06 23.5533 50.26 24.0067 50.62 24.34C50.9933 24.6733 51.5 24.84 52.14 24.84C52.7933 24.84 53.3067 24.6867 53.68 24.38C54.0533 24.06 54.24 23.6467 54.24 23.14C54.24 22.7267 54.1133 22.3867 53.86 22.12C53.6067 21.8533 53.2867 21.6467 52.9 21.5C52.5267 21.34 52.0067 21.1667 51.34 20.98C50.4333 20.7133 49.6933 20.4533 49.12 20.2C48.56 19.9333 48.0733 19.54 47.66 19.02C47.26 18.4867 47.06 17.78 47.06 16.9C47.06 16.0733 47.2667 15.3533 47.68 14.74C48.0933 14.1267 48.6733 13.66 49.42 13.34C50.1667 13.0067 51.02 12.84 51.98 12.84C53.42 12.84 54.5867 13.1933 55.48 13.9C56.3867 14.5933 56.8867 15.5667 56.98 16.82H53.9C53.8733 16.34 53.6667 15.9467 53.28 15.64C52.9067 15.32 52.4067 15.16 51.78 15.16C51.2333 15.16 50.7933 15.3 50.46 15.58C50.14 15.86 49.98 16.2667 49.98 16.8C49.98 17.1733 50.1 17.4867 50.34 17.74C50.5933 17.98 50.9 18.18 51.26 18.34C51.6333 18.4867 52.1533 18.66 52.82 18.86C53.7267 19.1267 54.4667 19.3933 55.04 19.66C55.6133 19.9267 56.1067 20.3267 56.52 20.86C56.9333 21.3933 57.14 22.0933 57.14 22.96C57.14 23.7067 56.9467 24.4 56.56 25.04C56.1733 25.68 55.6067 26.1933 54.86 26.58C54.1133 26.9533 53.2267 27.14 52.2 27.14ZM70.0275 15.92V27H67.2075V25.6C66.8475 26.08 66.3742 26.46 65.7875 26.74C65.2142 27.0067 64.5875 27.14 63.9075 27.14C63.0408 27.14 62.2742 26.96 61.6075 26.6C60.9408 26.2267 60.4142 25.6867 60.0275 24.98C59.6542 24.26 59.4675 23.4067 59.4675 22.42V15.92H62.2675V22.02C62.2675 22.9 62.4875 23.58 62.9275 24.06C63.3675 24.5267 63.9675 24.76 64.7275 24.76C65.5008 24.76 66.1075 24.5267 66.5475 24.06C66.9875 23.58 67.2075 22.9 67.2075 22.02V15.92H70.0275ZM75.5902 17.54C75.9502 17.0067 76.4435 16.5733 77.0702 16.24C77.7102 15.9067 78.4368 15.74 79.2502 15.74C80.1968 15.74 81.0502 15.9733 81.8102 16.44C82.5835 16.9067 83.1902 17.5733 83.6302 18.44C84.0835 19.2933 84.3102 20.2867 84.3102 21.42C84.3102 22.5533 84.0835 23.56 83.6302 24.44C83.1902 25.3067 82.5835 25.98 81.8102 26.46C81.0502 26.94 80.1968 27.18 79.2502 27.18C78.4235 27.18 77.6968 27.02 77.0702 26.7C76.4568 26.3667 75.9635 25.94 75.5902 25.42V27H72.7902V12.2H75.5902V17.54ZM81.4502 21.42C81.4502 20.7533 81.3102 20.18 81.0302 19.7C80.7635 19.2067 80.4035 18.8333 79.9502 18.58C79.5102 18.3267 79.0302 18.2 78.5102 18.2C78.0035 18.2 77.5235 18.3333 77.0702 18.6C76.6302 18.8533 76.2702 19.2267 75.9902 19.72C75.7235 20.2133 75.5902 20.7933 75.5902 21.46C75.5902 22.1267 75.7235 22.7067 75.9902 23.2C76.2702 23.6933 76.6302 24.0733 77.0702 24.34C77.5235 24.5933 78.0035 24.72 78.5102 24.72C79.0302 24.72 79.5102 24.5867 79.9502 24.32C80.4035 24.0533 80.7635 23.6733 81.0302 23.18C81.3102 22.6867 81.4502 22.1 81.4502 21.42ZM100.105 15.76C101.465 15.76 102.558 16.18 103.385 17.02C104.225 17.8467 104.645 19.0067 104.645 20.5V27H101.845V20.88C101.845 20.0133 101.625 19.3533 101.185 18.9C100.745 18.4333 100.145 18.2 99.3848 18.2C98.6248 18.2 98.0182 18.4333 97.5648 18.9C97.1248 19.3533 96.9048 20.0133 96.9048 20.88V27H94.1048V20.88C94.1048 20.0133 93.8848 19.3533 93.4448 18.9C93.0048 18.4333 92.4048 18.2 91.6448 18.2C90.8715 18.2 90.2582 18.4333 89.8048 18.9C89.3648 19.3533 89.1448 20.0133 89.1448 20.88V27H86.3448V15.92H89.1448V17.26C89.5048 16.7933 89.9648 16.4267 90.5248 16.16C91.0982 15.8933 91.7248 15.76 92.4048 15.76C93.2715 15.76 94.0448 15.9467 94.7248 16.32C95.4048 16.68 95.9315 17.2 96.3048 17.88C96.6648 17.24 97.1848 16.7267 97.8648 16.34C98.5582 15.9533 99.3048 15.76 100.105 15.76ZM108.722 14.6C108.229 14.6 107.815 14.4467 107.482 14.14C107.162 13.82 107.002 13.4267 107.002 12.96C107.002 12.4933 107.162 12.1067 107.482 11.8C107.815 11.48 108.229 11.32 108.722 11.32C109.215 11.32 109.622 11.48 109.942 11.8C110.275 12.1067 110.442 12.4933 110.442 12.96C110.442 13.4267 110.275 13.82 109.942 14.14C109.622 14.4467 109.215 14.6 108.722 14.6ZM110.102 15.92V27H107.302V15.92H110.102ZM116.128 18.22V23.58C116.128 23.9533 116.215 24.2267 116.388 24.4C116.575 24.56 116.882 24.64 117.308 24.64H118.608V27H116.848C114.488 27 113.308 25.8533 113.308 23.56V18.22H111.988V15.92H113.308V13.18H116.128V15.92H118.608V18.22H116.128Z" fill="#022345"/>
<path d="M180.061 21.0607C180.646 20.4749 180.646 19.5251 180.061 18.9393L170.515 9.3934C169.929 8.80761 168.979 8.80761 168.393 9.3934C167.808 9.97918 167.808 10.9289 168.393 11.5147L176.879 20L168.393 28.4853C167.808 29.0711 167.808 30.0208 168.393 30.6066C168.979 31.1924 169.929 31.1924 170.515 30.6066L180.061 21.0607ZM135 21.5H179V18.5H135V21.5Z" fill="#022345"/>
</svg>
