<svg width="42" height="34" viewBox="0 0 42 34" fill="none" xmlns="http://www.w3.org/2000/svg">
<path d="M40.9072 3.97739C39.6021 4.54022 38.2298 4.93189 36.8242 5.14262C37.4767 5.03076 38.4462 3.84689 38.8284 3.36215C39.4341 2.63359 39.8931 1.79474 40.1801 0.891847C40.1801 0.826593 40.2454 0.733373 40.1801 0.686764C40.1472 0.668814 40.1103 0.659411 40.0729 0.659411C40.0354 0.659411 39.9986 0.668814 39.9657 0.686764C38.4377 1.50895 36.8122 2.13534 35.1276 2.55114C35.0693 2.56895 35.0074 2.57054 34.9482 2.55576C34.8891 2.54098 34.8351 2.51038 34.792 2.46725C34.6619 2.31225 34.5217 2.1659 34.3726 2.02912C33.6741 1.42898 32.8842 0.94435 32.0327 0.593554C30.8907 0.137796 29.6619 -0.0595848 28.4345 0.0155871C27.2442 0.0820315 26.0815 0.399726 25.0227 0.947776C23.9456 1.49577 22.9935 2.26066 22.2262 3.19435C21.4427 4.15642 20.8823 5.28028 20.5855 6.48498C20.3295 7.62409 20.3009 8.80256 20.5016 9.95272C20.5016 10.1485 20.5016 10.1765 20.3338 10.1485C13.6873 9.16037 8.21537 6.78328 3.70358 1.68421C3.51714 1.46981 3.40529 1.46981 3.24682 1.68421C1.28922 4.62061 2.24003 9.32816 4.68237 11.6493C5.00805 11.9773 5.35028 12.2885 5.70775 12.5815C4.58764 12.4863 3.49761 12.1694 2.50102 11.6493C2.30526 11.5188 2.20276 11.5934 2.19344 11.8171C2.1675 12.1273 2.1675 12.4391 2.19344 12.7493C2.39008 14.2459 2.98035 15.6636 3.90403 16.8575C4.8277 18.0514 6.05165 18.9788 7.45094 19.545C7.79295 19.6901 8.1491 19.7994 8.51365 19.8712C7.47911 20.0781 6.41716 20.1096 5.37218 19.9644C5.13913 19.9644 5.05523 20.039 5.13913 20.2534C6.52809 24.0288 9.51112 25.1567 11.7484 25.7906C12.0467 25.8465 12.3543 25.8465 12.6806 25.9118C12.6806 25.9118 12.6806 25.9118 12.6246 25.9677C11.8789 27.0957 9.30602 27.944 8.11282 28.3634C5.91558 29.146 3.5753 29.4449 1.25192 29.2397C0.888368 29.1838 0.804455 29.1931 0.711236 29.2397C0.618017 29.2863 0.711223 29.3889 0.813763 29.4821C1.27986 29.7897 1.74598 30.0693 2.24004 30.3304C3.69615 31.1175 5.2341 31.7426 6.82639 32.1947C15.0576 34.4693 24.3422 32.7913 30.5226 26.6482C35.3793 21.8288 37.0479 15.173 37.0479 8.50782C37.0479 8.24681 37.3556 8.10698 37.5327 7.96715C38.7667 7.0099 39.8562 5.87964 40.7674 4.61128C40.9058 4.42584 40.9779 4.19937 40.9725 3.96807C41.0657 3.83757 41.0657 3.90281 40.9072 3.97739Z" fill="#06326E"/>
</svg>
