<svg width="132" height="70" viewBox="0 0 132 70" fill="none" xmlns="http://www.w3.org/2000/svg">
<path d="M75.7752 0.108112C76.1966 0.109514 76.6137 0.193424 77.0023 0.355237C77.3911 0.517049 77.744 0.75376 78.0405 1.05135C78.3372 1.34894 78.5716 1.702 78.7308 2.08991C78.8899 2.47802 78.9705 2.89337 78.9678 3.31232L78.7664 67.8631C78.7656 68.1078 78.7163 68.3499 78.6214 68.5758C78.5263 68.8015 78.3875 69.0066 78.2127 69.179C78.0381 69.3514 77.8308 69.4878 77.603 69.5805C77.3751 69.6735 77.1312 69.7205 76.8851 69.7195L58.4161 69.6614C57.919 69.6592 57.4428 69.4612 57.0925 69.1105C56.7421 68.7599 56.5459 68.2852 56.5469 67.791L56.706 18.9589C56.7131 16.4762 57.212 14.0194 58.1742 11.7284C59.1364 9.43756 60.543 7.35743 62.3138 5.60693C64.0845 3.85643 66.1846 2.47001 68.4944 1.52637C70.8042 0.582936 73.2781 0.100902 75.7752 0.108112Z" fill="white"/>
<path d="M47.6739 18.8889C48.0655 18.8897 48.4532 18.9672 48.8146 19.1172C49.176 19.2672 49.5041 19.4867 49.78 19.7628C50.0562 20.0392 50.2746 20.3668 50.423 20.7271C50.5715 21.0876 50.6468 21.4735 50.645 21.8628L50.4939 68.1416C50.4917 68.6358 50.2925 69.1092 49.9398 69.4575C49.5871 69.8059 49.1097 70.001 48.6126 70L30.1416 69.9399C29.8955 69.9391 29.6517 69.89 29.4247 69.7957C29.1977 69.7012 28.9915 69.5632 28.818 69.3894C28.6446 69.2158 28.5074 69.0097 28.4142 68.7832C28.3207 68.5567 28.2734 68.3142 28.2744 68.0695L28.3711 37.9719C28.3781 35.4588 28.8831 32.9718 29.857 30.6525C30.8309 28.3335 32.2548 26.2277 34.0473 24.4558C35.8396 22.6837 37.9657 21.28 40.3037 20.325C42.6418 19.3697 45.1462 18.8817 47.6739 18.8889Z" fill="white"/>
<path d="M19.2384 39.1533C20.0528 39.1559 20.8327 39.4799 21.4068 40.0541C21.9809 40.6284 22.3023 41.4057 22.3001 42.2153L22.2196 66.367C22.2181 66.8437 22.1225 67.3155 21.9378 67.7555C21.7528 68.1952 21.4827 68.5948 21.1427 68.9308C20.8027 69.2668 20.3993 69.533 19.9557 69.714C19.5122 69.8951 19.037 69.9874 18.5576 69.9858L3.63983 69.9377C3.16023 69.9361 2.68566 69.8406 2.24312 69.6568C1.80079 69.4729 1.39914 69.2042 1.06115 68.8657C0.723149 68.5275 0.455449 68.1263 0.273357 67.6854C0.0912665 67.2442 -0.00159081 66.7718 2.06187e-05 66.2949L0.0262073 58.1302C0.0344658 55.6299 0.537834 53.1559 1.50771 50.8491C2.47779 48.5422 3.89524 46.4479 5.67909 44.6858C7.46313 42.9236 9.57894 41.528 11.9054 40.5788C14.2319 39.6295 16.7236 39.1451 19.2384 39.1533Z" fill="white"/>
<path d="M115.414 49.2988C119.827 49.313 124.054 51.0695 127.164 54.1818C130.274 57.2941 132.014 61.5072 132 65.8946C131.999 66.2613 131.925 66.6241 131.782 66.9624C131.64 67.3004 131.431 67.6074 131.17 67.8656C130.908 68.1239 130.597 68.3282 130.256 68.4669C129.914 68.6055 129.549 68.676 129.18 68.6742L85.2686 68.532C84.8339 68.5298 84.4178 68.3564 84.1116 68.0498C83.8054 67.743 83.634 67.3281 83.635 66.8959L83.6874 50.8268C83.6882 50.6127 83.7313 50.4008 83.8145 50.2034C83.8977 50.0059 84.0191 49.8267 84.1718 49.6759C84.3247 49.5251 84.506 49.4057 84.7052 49.3244C84.9044 49.2433 85.1177 49.2018 85.3331 49.2026L115.414 49.2988Z" fill="white"/>
<path d="M102.162 24.6504C104.374 24.6574 106.563 25.0976 108.603 25.9457C110.644 26.7937 112.496 28.0331 114.055 29.5929C115.614 31.1528 116.849 33.0026 117.688 35.0367C118.528 37.0709 118.956 39.2496 118.949 41.4485C118.948 41.7889 118.88 42.1256 118.747 42.4396C118.615 42.7536 118.422 43.0384 118.179 43.2779C117.935 43.5174 117.647 43.7067 117.33 43.835C117.013 43.9634 116.673 44.0283 116.331 44.0259L85.0893 43.9258C84.6547 43.9241 84.2383 43.7513 83.9317 43.4449C83.6251 43.1385 83.4531 42.7238 83.4537 42.2916L83.5061 26.2205C83.5077 25.7879 83.682 25.3738 83.9905 25.0688C84.2991 24.764 84.7167 24.5934 85.1518 24.5944L102.162 24.6504Z" fill="white"/>
<path d="M88.1692 0.00605177C90.3696 0.0128607 92.5472 0.450635 94.5774 1.29414C96.6078 2.13765 98.4511 3.37067 100.002 4.92251C101.553 6.47435 102.781 8.31476 103.617 10.3386C104.452 12.3627 104.879 14.5303 104.872 16.718C104.868 17.4261 104.583 18.1042 104.078 18.6035C103.573 19.1027 102.889 19.3825 102.177 19.3815L86.6343 19.3314C86.2147 19.33 85.7996 19.2467 85.4124 19.0859C85.0255 18.9249 84.674 18.69 84.3783 18.394C84.0826 18.0982 83.8484 17.7473 83.689 17.3614C83.5297 16.9755 83.4483 16.5624 83.4497 16.1452L83.492 3.1662C83.493 2.74865 83.577 2.33551 83.739 1.9502C83.9007 1.5651 84.1376 1.21524 84.4357 0.921254C84.7338 0.627067 85.0871 0.394362 85.4759 0.236354C85.8647 0.0781467 86.2808 -0.00215877 86.7008 4.41223e-05L88.1692 0.00605177Z" fill="white"/>
</svg>
