<svg width="35" height="24" viewBox="0 0 35 24" fill="none" xmlns="http://www.w3.org/2000/svg">
<path d="M34.6728 7.52958C34.6741 6.54123 34.4821 5.56233 34.1079 4.64886C33.7337 3.73538 33.1846 2.90525 32.4919 2.20594C31.7993 1.50662 30.9768 0.951849 30.0714 0.573335C29.166 0.194822 28.1955 -7.83864e-07 27.2154 0H8.13971C6.16318 0.0124187 4.27112 0.809698 2.87347 2.21909C1.47583 3.62848 0.685167 5.53644 0.672852 7.52958V16.4799C0.672851 17.4682 0.86605 18.4469 1.24141 19.3599C1.61677 20.2729 2.16692 21.1023 2.8604 21.8008C3.55389 22.4992 4.37713 23.0529 5.28299 23.4303C6.18886 23.8076 7.15959 24.0012 8.13971 24H27.2154C28.1951 24.0012 29.1653 23.8076 30.0707 23.4301C30.976 23.0526 31.7986 22.4987 32.4914 21.8002C33.1841 21.1016 33.7334 20.2721 34.1077 19.3592C34.4821 18.4462 34.6741 17.4678 34.6728 16.4799V7.52958ZM23.4585 12.6725L14.9021 16.9439C14.564 17.1239 13.4276 16.8776 13.4276 16.4988V7.73795C13.4276 7.34016 14.5734 7.10338 14.9116 7.2928L23.1016 11.7822C23.4397 11.9811 23.806 12.483 23.4585 12.6725Z" fill="#06326E"/>
</svg>
